<svg width="100" height="100" viewBox="0 0 100 100" fill="none" xmlns="http://www.w3.org/2000/svg">
<path d="M82 8C83.09 8 84.18 10 84.725 11.5C89.085 24.7 92.2733 49.3333 93 60" stroke="#D2D4D7"/>
<path fill-rule="evenodd" clip-rule="evenodd" d="M74.4736 18.4203C74.4736 17.7734 75.0216 17.249 75.6975 17.249H85.7763C86.4522 17.249 87.0001 17.7734 87.0001 18.4203C87.0001 19.0673 86.4522 19.5917 85.7763 19.5917H75.6975C75.0216 19.5917 74.4736 19.0673 74.4736 18.4203Z" fill="#D2D4D7"/>
<path fill-rule="evenodd" clip-rule="evenodd" d="M73.9736 18.4203C73.9736 17.4769 74.7663 16.749 75.6975 16.749H85.7763C86.7074 16.749 87.5001 17.4769 87.5001 18.4203C87.5001 19.3638 86.7074 20.0917 85.7763 20.0917H75.6975C74.7663 20.0917 73.9736 19.3638 73.9736 18.4203ZM75.6975 17.749C75.2768 17.749 74.9736 18.07 74.9736 18.4203C74.9736 18.7707 75.2768 19.0917 75.6975 19.0917H85.7763C86.1969 19.0917 86.5001 18.7707 86.5001 18.4203C86.5001 18.07 86.1969 17.749 85.7763 17.749H75.6975Z" fill="white"/>
<path d="M82 8C83.09 8 84.18 10 84.725 11.5C89.085 24.7 92.2733 49.3333 93 60" stroke="#D2D4D7"/>
<path fill-rule="evenodd" clip-rule="evenodd" d="M74.4736 18.4203C74.4736 17.7734 75.0216 17.249 75.6975 17.249H85.7763C86.4522 17.249 87.0001 17.7734 87.0001 18.4203C87.0001 19.0673 86.4522 19.5917 85.7763 19.5917H75.6975C75.0216 19.5917 74.4736 19.0673 74.4736 18.4203Z" fill="#D2D4D7"/>
<path fill-rule="evenodd" clip-rule="evenodd" d="M73.9736 18.4203C73.9736 17.4769 74.7663 16.749 75.6975 16.749H85.7763C86.7074 16.749 87.5001 17.4769 87.5001 18.4203C87.5001 19.3638 86.7074 20.0917 85.7763 20.0917H75.6975C74.7663 20.0917 73.9736 19.3638 73.9736 18.4203ZM75.6975 17.749C75.2768 17.749 74.9736 18.07 74.9736 18.4203C74.9736 18.7707 75.2768 19.0917 75.6975 19.0917H85.7763C86.1969 19.0917 86.5001 18.7707 86.5001 18.4203C86.5001 18.07 86.1969 17.749 85.7763 17.749H75.6975Z" fill="white"/>
<path d="M82.0005 8C83.0905 8 84.1805 10 84.7255 11.5C89.0855 24.7 92.2739 49.3333 93.0005 60C93.0066 60.6246 93.0125 60.9488 93.0005 61.5" stroke="black"/>
<path fill-rule="evenodd" clip-rule="evenodd" d="M74.4736 18.4203C74.4736 17.7734 75.0216 17.249 75.6975 17.249H85.7763C86.4522 17.249 87.0001 17.7734 87.0001 18.4203C87.0001 19.0673 86.4522 19.5917 85.7763 19.5917H75.6975C75.0216 19.5917 74.4736 19.0673 74.4736 18.4203Z" fill="black"/>
<path fill-rule="evenodd" clip-rule="evenodd" d="M73.9736 18.4203C73.9736 17.4769 74.7663 16.749 75.6975 16.749H85.7763C86.7074 16.749 87.5001 17.4769 87.5001 18.4203C87.5001 19.3638 86.7074 20.0917 85.7763 20.0917H75.6975C74.7663 20.0917 73.9736 19.3638 73.9736 18.4203ZM75.6975 17.749C75.2768 17.749 74.9736 18.07 74.9736 18.4203C74.9736 18.7707 75.2768 19.0917 75.6975 19.0917H85.7763C86.1969 19.0917 86.5001 18.7707 86.5001 18.4203C86.5001 18.07 86.1969 17.749 85.7763 17.749H75.6975Z" fill="white"/>
<path d="M8.14494 58.5625L6 87.2194C13.5073 90.7364 28.5218 92.7462 45.1451 91.7413L50.5074 66.6194L55.3335 91.7413C62.9784 92.5742 80.8799 91.2532 94.7908 87.2837C94.8453 87.2681 95.0149 87.2194 94.999 86.9959L92.8699 59.0829" stroke="#D2D4D7"/>
<path d="M8.0498 60C8.77647 49.3333 11.2696 24.7 15.6296 11.5C16.1746 10 17.2646 8 18.3546 8H82" stroke="#D2D4D7"/>
<path fill-rule="evenodd" clip-rule="evenodd" d="M14 18.4203C14 17.7734 14.5479 17.249 15.2239 17.249H70.6572C71.3331 17.249 71.881 17.7734 71.881 18.4203C71.881 19.0673 71.3331 19.5917 70.6572 19.5917H15.2239C14.5479 19.5917 14 19.0673 14 18.4203Z" fill="#D2D4D7"/>
<path fill-rule="evenodd" clip-rule="evenodd" d="M13.5 18.4203C13.5 17.4769 14.2927 16.749 15.2239 16.749H70.6572C71.5883 16.749 72.381 17.4769 72.381 18.4203C72.381 19.3638 71.5883 20.0917 70.6572 20.0917H15.2239C14.2927 20.0917 13.5 19.3638 13.5 18.4203ZM15.2239 17.749C14.8032 17.749 14.5 18.07 14.5 18.4203C14.5 18.7707 14.8032 19.0917 15.2239 19.0917H70.6572C71.0778 19.0917 71.381 18.7707 71.381 18.4203C71.381 18.07 71.0778 17.749 70.6572 17.749H15.2239Z" fill="white"/>
<path fill-rule="evenodd" clip-rule="evenodd" d="M44.7013 12.6229C45.2637 12.9817 45.4156 13.709 45.0407 14.2472C43.6857 16.1924 40.5939 21.9593 39.4727 28.9339C39.3699 29.5733 38.745 30.0119 38.077 29.9135C37.4089 29.8152 36.9507 29.2171 37.0535 28.5777C38.236 21.2208 41.4794 15.1366 43.0041 12.9477C43.379 12.4095 44.1389 12.264 44.7013 12.6229Z" fill="#D2D4D7"/>
<path fill-rule="evenodd" clip-rule="evenodd" d="M42.5936 12.6619C43.1262 11.8974 44.1878 11.7022 44.97 12.2013C45.7648 12.7084 45.9929 13.7547 45.4508 14.533C44.1321 16.4262 41.0737 22.1236 39.9662 29.0133C39.817 29.9416 38.9234 30.5435 38.004 30.4082C37.0803 30.2722 36.4095 29.4325 36.5596 28.4983C37.7559 21.0564 41.0327 14.9028 42.5936 12.6619ZM44.4321 13.0444C44.0896 12.8258 43.6315 12.9215 43.4142 13.2335C41.9257 15.3704 38.7159 21.3852 37.547 28.657C37.4916 29.0016 37.7372 29.3581 38.1497 29.4188C38.5664 29.4802 38.9226 29.2049 38.9789 28.8545C40.1137 21.7949 43.239 15.9586 44.6303 13.9614C44.838 13.6632 44.7622 13.255 44.4321 13.0444Z" fill="white"/>
<path fill-rule="evenodd" clip-rule="evenodd" d="M56.3022 12.6229C55.7398 12.9817 55.5878 13.709 55.9627 14.2472C57.3177 16.1924 60.4096 21.9593 61.5307 28.9339C61.6335 29.5733 62.2584 30.0119 62.9264 29.9135C63.5945 29.8152 64.0527 29.2171 63.95 28.5777C62.7674 21.2208 59.524 15.1366 57.9993 12.9477C57.6244 12.4095 56.8645 12.264 56.3022 12.6229Z" fill="#D2D4D7"/>
<path fill-rule="evenodd" clip-rule="evenodd" d="M58.4098 12.6619C57.8773 11.8974 56.8156 11.7022 56.0334 12.2013C55.2387 12.7084 55.0105 13.7547 55.5526 14.533C56.8714 16.4262 59.9297 22.1236 61.0372 29.0133C61.1864 29.9416 62.08 30.5435 62.9994 30.4082C63.9231 30.2722 64.594 29.4325 64.4438 28.4983C63.2475 21.0564 59.9707 14.9028 58.4098 12.6619ZM56.5713 13.0444C56.9138 12.8258 57.3719 12.9215 57.5892 13.2335C59.0777 15.3704 62.2875 21.3852 63.4565 28.657C63.5118 29.0016 63.2662 29.3581 62.8538 29.4188C62.437 29.4802 62.0809 29.2049 62.0245 28.8545C60.8897 21.7949 57.7644 15.9586 56.3732 13.9614C56.1654 13.6632 56.2412 13.255 56.5713 13.0444Z" fill="white"/>
<path d="M8.07407 59.7925L7 75.0432C11.2963 78.2628 29.0185 81.6519 45.1296 79.1101L50.5 59.2841L55.3333 79.1101C63.0309 79.9573 81.5407 80.2285 94 74.5349L92.9259 59.7925" stroke="#D2D4D7" stroke-linejoin="round"/>
<path d="M8.0498 60C8.77647 49.3333 11.2696 24.7 15.6296 11.5C16.1746 10 17.2646 8 18.3546 8H82" stroke="#D2D4D7"/>
<path fill-rule="evenodd" clip-rule="evenodd" d="M14 18.4203C14 17.7734 14.5479 17.249 15.2239 17.249H70.6572C71.3331 17.249 71.881 17.7734 71.881 18.4203C71.881 19.0673 71.3331 19.5917 70.6572 19.5917H15.2239C14.5479 19.5917 14 19.0673 14 18.4203Z" fill="#D2D4D7"/>
<path fill-rule="evenodd" clip-rule="evenodd" d="M13.5 18.4203C13.5 17.4769 14.2927 16.749 15.2239 16.749H70.6572C71.5883 16.749 72.381 17.4769 72.381 18.4203C72.381 19.3638 71.5883 20.0917 70.6572 20.0917H15.2239C14.2927 20.0917 13.5 19.3638 13.5 18.4203ZM15.2239 17.749C14.8032 17.749 14.5 18.07 14.5 18.4203C14.5 18.7707 14.8032 19.0917 15.2239 19.0917H70.6572C71.0778 19.0917 71.381 18.7707 71.381 18.4203C71.381 18.07 71.0778 17.749 70.6572 17.749H15.2239Z" fill="white"/>
<path fill-rule="evenodd" clip-rule="evenodd" d="M44.7013 12.6229C45.2637 12.9817 45.4156 13.709 45.0407 14.2472C43.6857 16.1924 40.5939 21.9593 39.4727 28.9339C39.3699 29.5733 38.745 30.0119 38.077 29.9135C37.4089 29.8152 36.9507 29.2171 37.0535 28.5777C38.236 21.2208 41.4794 15.1366 43.0041 12.9477C43.379 12.4095 44.1389 12.264 44.7013 12.6229Z" fill="#D2D4D7"/>
<path fill-rule="evenodd" clip-rule="evenodd" d="M42.5936 12.6619C43.1262 11.8974 44.1878 11.7022 44.97 12.2013C45.7648 12.7084 45.9929 13.7547 45.4508 14.533C44.1321 16.4262 41.0737 22.1236 39.9662 29.0133C39.817 29.9416 38.9234 30.5435 38.004 30.4082C37.0803 30.2722 36.4095 29.4325 36.5596 28.4983C37.7559 21.0564 41.0327 14.9028 42.5936 12.6619ZM44.4321 13.0444C44.0896 12.8258 43.6315 12.9215 43.4142 13.2335C41.9257 15.3704 38.7159 21.3852 37.547 28.657C37.4916 29.0016 37.7372 29.3581 38.1497 29.4188C38.5664 29.4802 38.9226 29.2049 38.9789 28.8545C40.1137 21.7949 43.239 15.9586 44.6303 13.9614C44.838 13.6632 44.7622 13.255 44.4321 13.0444Z" fill="white"/>
<path fill-rule="evenodd" clip-rule="evenodd" d="M56.3022 12.6229C55.7398 12.9817 55.5878 13.709 55.9627 14.2472C57.3177 16.1924 60.4096 21.9593 61.5307 28.9339C61.6335 29.5733 62.2584 30.0119 62.9264 29.9135C63.5945 29.8152 64.0527 29.2171 63.95 28.5777C62.7674 21.2208 59.524 15.1366 57.9993 12.9477C57.6244 12.4095 56.8645 12.264 56.3022 12.6229Z" fill="#D2D4D7"/>
<path fill-rule="evenodd" clip-rule="evenodd" d="M58.4098 12.6619C57.8773 11.8974 56.8156 11.7022 56.0334 12.2013C55.2387 12.7084 55.0105 13.7547 55.5526 14.533C56.8714 16.4262 59.9297 22.1236 61.0372 29.0133C61.1864 29.9416 62.08 30.5435 62.9994 30.4082C63.9231 30.2722 64.594 29.4325 64.4438 28.4983C63.2475 21.0564 59.9707 14.9028 58.4098 12.6619ZM56.5713 13.0444C56.9138 12.8258 57.3719 12.9215 57.5892 13.2335C59.0777 15.3704 62.2875 21.3852 63.4565 28.657C63.5118 29.0016 63.2662 29.3581 62.8538 29.4188C62.437 29.4802 62.0809 29.2049 62.0245 28.8545C60.8897 21.7949 57.7644 15.9586 56.3732 13.9614C56.1654 13.6632 56.2412 13.255 56.5713 13.0444Z" fill="white"/>
<path d="M8.07422 61.709C13.7304 64.7016 32.1285 67.4768 47.1298 65.1101L50.5001 49.2841L53.3335 65.1101C60.8127 65.9333 80.4999 66.2126 92.9261 61.0049" stroke="black"/>
<path d="M81.9999 8H18.3546C17.2646 8 16.1746 10 15.6296 11.5C11.2696 24.7 8.77641 49.3333 8.04975 60C7.97729 61.4164 7.97767 61.8101 7.99994 62" stroke="black"/>
<path fill-rule="evenodd" clip-rule="evenodd" d="M14 18.4203C14 17.7734 14.5479 17.249 15.2239 17.249H70.6572C71.3331 17.249 71.881 17.7734 71.881 18.4203C71.881 19.0673 71.3331 19.5917 70.6572 19.5917H15.2239C14.5479 19.5917 14 19.0673 14 18.4203Z" fill="black"/>
<path fill-rule="evenodd" clip-rule="evenodd" d="M13.5 18.4203C13.5 17.4769 14.2927 16.749 15.2239 16.749H70.6572C71.5883 16.749 72.381 17.4769 72.381 18.4203C72.381 19.3638 71.5883 20.0917 70.6572 20.0917H15.2239C14.2927 20.0917 13.5 19.3638 13.5 18.4203ZM15.2239 17.749C14.8032 17.749 14.5 18.07 14.5 18.4203C14.5 18.7707 14.8032 19.0917 15.2239 19.0917H70.6572C71.0778 19.0917 71.381 18.7707 71.381 18.4203C71.381 18.07 71.0778 17.749 70.6572 17.749H15.2239Z" fill="white"/>
<path fill-rule="evenodd" clip-rule="evenodd" d="M44.7013 12.6229C45.2637 12.9817 45.4156 13.709 45.0407 14.2472C43.6857 16.1924 40.5939 21.9593 39.4727 28.9339C39.3699 29.5733 38.745 30.0119 38.077 29.9135C37.4089 29.8152 36.9507 29.2171 37.0535 28.5777C38.236 21.2208 41.4794 15.1366 43.0041 12.9477C43.379 12.4095 44.1389 12.264 44.7013 12.6229Z" fill="black"/>
<path fill-rule="evenodd" clip-rule="evenodd" d="M42.5936 12.6619C43.1262 11.8974 44.1878 11.7022 44.97 12.2013C45.7648 12.7084 45.9929 13.7547 45.4508 14.533C44.1321 16.4262 41.0737 22.1236 39.9662 29.0133C39.817 29.9416 38.9234 30.5435 38.004 30.4082C37.0803 30.2722 36.4095 29.4325 36.5596 28.4983C37.7559 21.0564 41.0327 14.9028 42.5936 12.6619ZM44.4321 13.0444C44.0896 12.8258 43.6315 12.9215 43.4142 13.2335C41.9257 15.3704 38.7159 21.3852 37.547 28.657C37.4916 29.0016 37.7372 29.3581 38.1497 29.4188C38.5664 29.4802 38.9226 29.2049 38.9789 28.8545C40.1137 21.7949 43.239 15.9586 44.6303 13.9614C44.838 13.6632 44.7622 13.255 44.4321 13.0444Z" fill="white"/>
<path fill-rule="evenodd" clip-rule="evenodd" d="M56.3022 12.6229C55.7398 12.9817 55.5878 13.709 55.9627 14.2472C57.3177 16.1924 60.4096 21.9593 61.5307 28.9339C61.6335 29.5733 62.2584 30.0119 62.9264 29.9135C63.5945 29.8152 64.0527 29.2171 63.95 28.5777C62.7674 21.2208 59.524 15.1366 57.9993 12.9477C57.6244 12.4095 56.8645 12.264 56.3022 12.6229Z" fill="black"/>
<path fill-rule="evenodd" clip-rule="evenodd" d="M58.4098 12.6619C57.8773 11.8974 56.8156 11.7022 56.0334 12.2013C55.2387 12.7084 55.0105 13.7547 55.5526 14.533C56.8714 16.4262 59.9297 22.1236 61.0372 29.0133C61.1864 29.9416 62.08 30.5435 62.9994 30.4082C63.9231 30.2722 64.594 29.4325 64.4438 28.4983C63.2475 21.0564 59.9707 14.9028 58.4098 12.6619ZM56.5713 13.0444C56.9138 12.8258 57.3719 12.9215 57.5892 13.2335C59.0777 15.3704 62.2875 21.3852 63.4565 28.657C63.5118 29.0016 63.2662 29.3581 62.8538 29.4188C62.437 29.4802 62.0809 29.2049 62.0245 28.8545C60.8897 21.7949 57.7644 15.9586 56.3732 13.9614C56.1654 13.6632 56.2412 13.255 56.5713 13.0444Z" fill="white"/>
</svg>
